 <svg
              className="w-16 h-5 md:w-40  md:h-14"
              viewBox="0 0 69 23"
              fill="none"
              xmlns="http://www.w3.org/2000/svg"
            >
              <g clip-path="url(#clip0_0_530)">
                <path
                  d="M66.3479 14.0569L68.2385 15.3172C67.6249 16.221 66.1573 17.7716 63.62 17.7716C60.4692 17.7716 58.1227 15.3338 58.1227 12.2327C58.1227 8.93265 60.494 6.69385 63.3547 6.69385C66.2319 6.69385 67.6414 8.98229 68.0976 10.2178L68.3463 10.848L60.9336 13.9159C61.4974 15.027 62.3764 15.5909 63.62 15.5909C64.8638 15.5909 65.7261 14.9773 66.3479 14.0569ZM60.5356 12.0587L65.4857 10.0023C65.212 9.31412 64.3996 8.82496 63.4292 8.82496C62.1939 8.82496 60.4775 9.91947 60.5356 12.0587Z"
                  fill="#A9A9B9"
                />
                <path
                  d="M54.5485 1.04908H56.9364V17.2677H54.5485V1.04895V1.04908Z"
                  fill="#A9A9B9"
                />
                <path
                  d="M50.7822 7.12614H53.0873V16.9767C53.0873 21.0644 50.6744 22.7477 47.822 22.7477C45.1356 22.7477 43.5187 20.9401 42.9134 19.4725L45.0277 18.5935C45.4091 19.4973 46.3295 20.567 47.822 20.567C49.6544 20.567 50.7822 19.431 50.7822 17.3084V16.5124H50.6993C50.152 17.1757 49.1072 17.7727 47.7806 17.7727C45.0111 17.7727 42.4738 15.3598 42.4738 12.2505C42.4738 9.12442 45.0111 6.68677 47.7806 6.68677C49.099 6.68677 50.152 7.27548 50.6993 7.92223H50.7822V7.12627V7.12614ZM50.9479 12.2505C50.9479 10.2936 49.6462 8.8674 47.9878 8.8674C46.3129 8.8674 44.9033 10.2936 44.9033 12.2505C44.9033 14.1823 46.3129 15.5837 47.9878 15.5837C49.6463 15.592 50.948 14.1823 50.948 12.2505H50.9479Z"
                  fill="#A9A9B9"
                />
                <path
                  d="M29.3664 12.2078C29.3664 15.4002 26.879 17.7467 23.8276 17.7467C20.7763 17.7467 18.2888 15.3919 18.2888 12.2078C18.2888 8.99899 20.7763 6.66077 23.8276 6.66077C26.879 6.66077 29.3664 8.99899 29.3664 12.2078ZM26.9453 12.2078C26.9453 10.218 25.5024 8.84965 23.8276 8.84965C22.1527 8.84965 20.7099 10.218 20.7099 12.2078C20.7099 14.1812 22.1527 15.566 23.8276 15.566C25.5026 15.566 26.9453 14.1812 26.9453 12.2078Z"
                  fill="#A9A9B9"
                />
                <path
                  d="M41.4624 12.2327C41.4624 15.425 38.9749 17.7715 35.9236 17.7715C32.8722 17.7715 30.3848 15.4249 30.3848 12.2327C30.3848 9.02382 32.8722 6.69385 35.9236 6.69385C38.9749 6.69385 41.4624 9.01557 41.4624 12.2327ZM39.0329 12.2327C39.0329 10.2428 37.5902 8.87448 35.9152 8.87448C34.2404 8.87448 32.7975 10.2428 32.7975 12.2327C32.7975 14.2061 34.2404 15.5909 35.9152 15.5909C37.5984 15.5909 39.0329 14.1978 39.0329 12.2327Z"
                  fill="#A9A9B9"
                />
                <path
                  d="M9.18442 15.3441C5.71016 15.3441 2.9906 12.5415 2.9906 9.06724C2.9906 5.59312 5.71016 2.79049 9.18442 2.79049C11.0584 2.79049 12.4264 3.52842 13.438 4.47372L15.1047 2.80713C13.6952 1.4556 11.8129 0.427246 9.18442 0.427246C4.42505 0.427379 0.420105 4.308 0.420105 9.06724C0.420105 13.8267 4.42505 17.7072 9.18442 17.7072C11.7549 17.7072 13.6952 16.8615 15.2125 15.2861C16.7713 13.7272 17.2522 11.5382 17.2522 9.76377C17.2522 9.2082 17.1859 8.63612 17.1113 8.21325H9.18442V10.5183H14.8311C14.6652 11.9612 14.2092 12.9479 13.5376 13.6194C12.725 14.4404 11.4399 15.3441 9.18442 15.3441Z"
                  fill="#A9A9B9"
                />
              </g>
              <defs>
                <clipPath id="clip0_0_530">
                  <rect
                    width="68.1489"
                    height="22.3613"
                    fill="white"
                    transform="translate(0.320984 0.391602)"
                  />
                </clipPath>
              </defs>
            </svg>