<svg
              className="w-10 h-10 md:w-24 md:h-24"
              viewBox="0 0 41 41"
              fill="none"
              xmlns="http://www.w3.org/2000/svg"
            >
              <g clip-path="url(#clip0_0_539)">
                <path
                  d="M9.48506 11.7329C7.1412 11.7329 4.89334 12.664 3.23598 14.3214C1.57862 15.9787 0.647522 18.2266 0.647522 20.5704C0.647522 22.9143 1.57862 25.1622 3.23598 26.8195C4.89334 28.4769 7.1412 29.408 9.48506 29.408C11.7992 29.363 14.0033 28.4121 15.6239 26.7596C17.2445 25.1072 18.1524 22.885 18.1524 20.5704C18.1524 18.2559 17.2445 16.0337 15.6239 14.3813C14.0033 12.7288 11.7992 11.7779 9.48506 11.7329ZM9.48506 13.1707C9.56865 13.1707 9.74587 13.1707 9.83615 13.1741V13.8646C9.71914 13.862 9.6021 13.8604 9.48506 13.8595C8.60412 13.8573 7.73149 14.0298 6.91764 14.367C6.10379 14.7042 5.36487 15.1994 4.74362 15.824C4.11874 16.445 3.62334 17.1839 3.28612 17.9978C2.94891 18.8117 2.7766 19.6844 2.77916 20.5654C2.77916 22.3577 3.47634 24.0429 4.74362 25.3069C5.36487 25.9315 6.10379 26.4267 6.91764 26.7639C7.73149 27.101 8.60412 27.2735 9.48506 27.2713C11.185 27.2682 12.8205 26.6212 14.0624 25.4607C15.3042 24.3001 16.06 22.7122 16.1776 21.0168V20.9165H11.6V20.2311H16.5838L16.8798 20.2294V20.5654C16.8829 21.5369 16.6932 22.4993 16.3219 23.3969C15.9505 24.2946 15.4048 25.1097 14.7164 25.7951C14.0306 26.4841 13.215 27.0303 12.3168 27.4023C11.4186 27.7742 10.4555 27.9643 9.48339 27.9618C7.51057 27.9618 5.65479 27.1927 4.25042 25.7951C3.56225 25.1096 3.01685 24.2944 2.6458 23.3967C2.27474 22.4991 2.08538 21.5368 2.08868 20.5654C2.09089 18.6043 2.87081 16.7241 4.25737 15.3373C5.64393 13.9504 7.52394 13.17 9.48506 13.1674V13.1707ZM36.3404 14.6386C32.6456 14.6386 30.7028 16.6566 30.7028 20.5036C30.7028 24.3322 32.4583 26.4053 36.3203 26.4053C38.0925 26.4053 39.8296 25.9539 40.7726 25.2935V19.7496H36.1916V21.8795H38.34V23.8774C37.9437 24.0279 37.1697 24.18 36.434 24.18C34.06 24.18 33.2675 22.9729 33.2675 20.522C33.2675 18.1847 34.0198 16.8071 36.3973 16.8071C37.718 16.8071 38.4704 17.2217 39.094 18.0141L40.7358 16.5061C39.736 15.0733 37.9822 14.6386 36.3387 14.6386H36.3404ZM22.2749 14.8092V26.2348H30.3835V24.0112H24.9165V14.8075L22.2749 14.8092ZM6.66293 16.6867C6.9445 16.6867 7.21453 16.7985 7.41363 16.9976C7.61272 17.1967 7.72457 17.4668 7.72457 17.7483C7.72457 18.0299 7.61272 18.2999 7.41363 18.499C7.21453 18.6981 6.9445 18.81 6.66293 18.81C6.38137 18.81 6.11134 18.6981 5.91224 18.499C5.71314 18.2999 5.60129 18.0299 5.60129 17.7483C5.60129 17.4668 5.71314 17.1967 5.91224 16.9976C6.11134 16.7985 6.38137 16.6867 6.66293 16.6867ZM9.13397 16.69H9.83615V23.7453H11.595V24.4375H9.13397V16.69Z"
                  fill="#A9A9B9"
                />
              </g>
              <defs>
                <clipPath id="clip0_0_539">
                  <rect
                    width="40.125"
                    height="40.125"
                    fill="white"
                    transform="translate(0.646606 0.509766)"
                  />
                </clipPath>
              </defs>
            </svg>