<svg
              className="w-22 h-5 md:w-60 md:h-12"
              viewBox="0 0 99 22"
              fill="none"
              xmlns="http://www.w3.org/2000/svg"
            >
              <g clip-path="url(#clip0_0_524)">
                <path
                  d="M98.4584 9.57411V7.84903H96.3163V5.16744L96.2442 5.18947L94.2322 5.80518L94.1927 5.81725V7.84903H91.0171V6.71724C91.0171 6.19023 91.1349 5.78679 91.3673 5.51801C91.5979 5.25212 91.9278 5.11706 92.3485 5.11706C92.6512 5.11706 92.9642 5.18832 93.2795 5.32874L93.3584 5.36399V3.54753L93.3213 3.53412C93.0272 3.42819 92.6272 3.37512 92.1316 3.37512C91.5067 3.37512 90.9391 3.51094 90.4439 3.78048C89.9559 4.0429 89.5539 4.44036 89.2859 4.9253C89.0138 5.41457 88.8759 5.9795 88.8759 6.60479V7.84922H87.3843V9.5743H88.8759V16.8411H91.0171V9.57411H94.1927V14.1921C94.1927 16.094 95.0896 17.0579 96.859 17.0579C97.1647 17.0562 97.4695 17.0223 97.7682 16.9568C98.0862 16.8884 98.3026 16.82 98.4302 16.747L98.4584 16.7304V14.9894L98.3714 15.047C98.2551 15.1246 98.1105 15.1879 97.9408 15.2348C97.7703 15.2827 97.6279 15.3068 97.5178 15.3068C97.1032 15.3068 96.7967 15.1951 96.6063 14.9746C96.414 14.7524 96.3163 14.3633 96.3163 13.8193V9.57411H98.4584ZM82.6026 15.307C81.8254 15.307 81.2128 15.0492 80.7808 14.5417C80.3465 14.0313 80.1262 13.3042 80.1262 12.3798C80.1262 11.4264 80.3465 10.6802 80.7812 10.1609C81.2131 9.64518 81.82 9.38331 82.5852 9.38331C83.3275 9.38331 83.9185 9.6333 84.3418 10.127C84.7673 10.6229 84.9832 11.3632 84.9832 12.3277C84.9832 13.3042 84.7802 14.0543 84.3798 14.5561C83.9823 15.0541 83.3844 15.307 82.6026 15.307ZM82.698 7.63236C81.2152 7.63236 80.0375 8.06684 79.198 8.92373C78.3588 9.78081 77.9333 10.9666 77.9333 12.449C77.9333 13.8568 78.3486 14.9892 79.1678 15.8143C79.9869 16.6396 81.1018 17.0576 82.4809 17.0576C83.9183 17.0576 85.0725 16.6171 85.9119 15.7484C86.751 14.8806 87.1763 13.7059 87.1763 12.258C87.1763 10.8283 86.7773 9.68752 85.9901 8.86798C85.2024 8.04807 84.0945 7.63236 82.698 7.63236ZM74.4808 7.63236C73.4722 7.63236 72.6379 7.89041 72.0006 8.39902C71.3596 8.9107 71.0343 9.58196 71.0343 10.394C71.0343 10.8161 71.1044 11.191 71.2427 11.509C71.3816 11.8281 71.5968 12.109 71.8826 12.3448C72.1661 12.5787 72.6038 12.8237 73.1841 13.0727C73.6716 13.2735 74.0354 13.4434 74.2665 13.5771C74.4923 13.7084 74.6527 13.8402 74.7431 13.9685C74.831 14.094 74.8756 14.266 74.8756 14.4781C74.8756 15.0823 74.4234 15.3762 73.4925 15.3762C73.1471 15.3762 72.7533 15.3041 72.3218 15.162C71.8935 15.0219 71.4893 14.8169 71.1232 14.5541L71.0343 14.4905V16.5518L71.0669 16.5672C71.3699 16.707 71.7519 16.8248 72.2021 16.9177C72.6515 17.0104 73.0596 17.0578 73.4144 17.0578C74.5088 17.0578 75.3902 16.7986 76.0331 16.2869C76.6806 15.7716 77.0086 15.0848 77.0086 14.2444C77.0086 13.6384 76.832 13.1185 76.4837 12.6994C76.1383 12.2837 75.5383 11.9019 74.7015 11.5645C74.0349 11.2969 73.6077 11.0749 73.4316 10.9044C73.2617 10.7396 73.1755 10.5067 73.1755 10.2118C73.1755 9.95016 73.282 9.74077 73.5006 9.57104C73.7209 9.40055 74.0274 9.31377 74.4117 9.31377C74.7686 9.31377 75.1335 9.37009 75.4965 9.48043C75.8594 9.59097 76.1777 9.73905 76.4438 9.91989L76.5312 9.97966V8.02412L76.4977 8.00975C76.2525 7.90439 75.9287 7.81435 75.536 7.74156C75.1444 7.66914 74.7894 7.63236 74.4808 7.63236ZM65.4522 15.307C64.6752 15.307 64.0623 15.0492 63.6305 14.5417C63.1961 14.0313 62.9763 13.3042 62.9763 12.3798C62.9763 11.4264 63.1963 10.6802 63.6311 10.1609C64.0627 9.64518 64.6694 9.38331 65.4349 9.38331C66.1773 9.38331 66.7683 9.6333 67.1916 10.127C67.6171 10.6229 67.833 11.3632 67.833 12.3277C67.833 13.3042 67.6299 14.0543 67.2295 14.5561C66.8319 15.0541 66.2342 15.307 65.4522 15.307ZM65.5478 7.63236C64.0646 7.63236 62.8869 8.06684 62.0478 8.92373C61.2087 9.78081 60.7829 10.9666 60.7829 12.449C60.7829 13.8574 61.1986 14.9892 62.0175 15.8143C62.8367 16.6396 63.9514 17.0576 65.3309 17.0576C66.7677 17.0576 67.9225 16.6171 68.7619 15.7484C69.6008 14.8806 70.0263 13.7059 70.0263 12.258C70.0263 10.8283 69.627 9.68752 68.8397 8.86798C68.0518 8.04807 66.9441 7.63236 65.5478 7.63236ZM57.5325 9.40629V7.84903H55.4174V16.8407H57.5323V12.2409C57.5323 11.4588 57.7097 10.8162 58.0597 10.331C58.4051 9.8515 58.8656 9.6084 59.4275 9.6084C59.6181 9.6084 59.8319 9.63982 60.0635 9.70208C60.2928 9.76376 60.4589 9.83081 60.5568 9.90131L60.6457 9.96587V7.8337L60.6112 7.81895C60.4145 7.73524 60.1357 7.69309 59.7833 7.69309C59.2517 7.69309 58.776 7.86378 58.3687 8.19998C58.0111 8.49557 57.7524 8.90093 57.5549 9.40629H57.5325ZM51.6297 7.63236C50.6594 7.63236 49.7937 7.8406 49.0575 8.25075C48.32 8.66166 47.7493 9.24882 47.3611 9.99499C46.9748 10.7396 46.7786 11.6093 46.7786 12.5793C46.7786 13.4287 46.9688 14.2084 47.3447 14.8953C47.7209 15.5836 48.2535 16.1221 48.9274 16.4957C49.6006 16.8687 50.3785 17.0578 51.2397 17.0578C52.2448 17.0578 53.103 16.8568 53.7914 16.4606L53.8189 16.4445V14.5068L53.7302 14.5718C53.4136 14.8012 53.0649 14.9827 52.6954 15.1105C52.3214 15.2409 51.9808 15.3068 51.682 15.3068C50.8519 15.3068 50.1858 15.0472 49.7021 14.5354C49.2174 14.0225 48.9717 13.3028 48.9717 12.3969C48.9717 11.4854 49.228 10.7471 49.733 10.2021C50.2366 9.65897 50.904 9.3835 51.7169 9.3835C52.4121 9.3835 53.0894 9.61894 53.7302 10.0839L53.8189 10.1482V8.1065L53.7904 8.0904C53.549 7.95535 53.2203 7.84386 52.8119 7.75937C52.4054 7.67508 52.0077 7.63236 51.6297 7.63236ZM45.3219 7.84903H43.2066V16.8407H45.3219V7.84903ZM44.2859 4.0186C43.9378 4.0186 43.6342 4.13718 43.3847 4.37186C43.1342 4.60749 43.007 4.90404 43.007 5.25384C43.007 5.59828 43.1326 5.88928 43.3805 6.11858C43.6271 6.34713 43.9317 6.46303 44.2859 6.46303C44.6399 6.46303 44.9457 6.34713 45.1951 6.11897C45.446 5.88928 45.5734 5.59828 45.5734 5.25384C45.5734 4.9163 45.4495 4.62262 45.2054 4.38143C44.9615 4.14063 44.652 4.0186 44.2859 4.0186ZM39.0085 7.18582V16.8405H41.1671V4.29389H38.1796L34.3821 13.6132L30.6971 4.29389H27.588V16.8407H29.6165V7.18486H29.6862L33.5776 16.8407H35.1082L38.9388 7.18562L39.0085 7.18582Z"
                  fill="#A9A9B9"
                />
                <path
                  d="M10.3247 10.0533H0.374817V0.103394H10.3247V10.0533Z"
                  fill="#A9A9B9"
                />
                <path
                  d="M21.3121 10.0533H11.3622V0.103394H21.3121V10.0533Z"
                  fill="#A9A9B9"
                />
                <path
                  d="M10.3245 21.043H0.374817V11.0931H10.3245V21.043Z"
                  fill="#A9A9B9"
                />
                <path
                  d="M21.3121 21.043H11.3622V11.0931H21.3121V21.043Z"
                  fill="#A9A9B9"
                />
              </g>
              <defs>
                <clipPath id="clip0_0_524">
                  <rect
                    width="170.0834"
                    height="56.0726"
                    fill="white"
                    transform="translate(0.375183 0.102905)"
                  />
                </clipPath>
              </defs>
            </svg>