 <svg
              width="174"
              height="26"
              viewBox="0 0 71 11"
              fill="none"
              xmlns="http://www.w3.org/2000/svg"
              className="w-16 h-2 md:w-44 md:h-6"
            >
              <path
                d="M58.2191 0.64206L58.3527 8.4705H58.2859L56.0193 0.644967H52.2911V10.5017H54.7553L54.6216 2.40883H54.6884L57.1177 10.5017H60.6833V0.644967L58.2191 0.64206ZM11.2891 0.64206L9.42643 10.6034H12.1231L13.4889 1.54288H13.5557L14.8895 10.6034H17.5513L15.7206 0.644967L11.2891 0.64206ZM26.3445 0.64206L25.1124 8.23803H25.0455L23.8134 0.644967H19.7539L19.5534 10.6034H22.0525L22.1193 1.64459H22.1513L23.8164 10.6034H26.3474L28.0124 1.64459H28.0793L28.1461 10.6034H30.6452L30.4127 0.644967L26.3445 0.64206ZM5.23034 7.77309C5.30609 8.00997 5.31713 8.26279 5.26231 8.50537C5.19547 8.83664 4.963 9.17082 4.29755 9.17082C3.66407 9.17082 3.29793 8.80468 3.29793 8.27V7.30524H0.63324V8.0724C0.63324 10.3041 2.39711 10.9696 4.26559 10.9696C6.06142 10.9696 7.56086 10.3361 7.79333 8.70297C7.927 7.83702 7.8282 7.27328 7.79333 7.07277C7.32839 4.97473 3.5304 4.37321 3.26306 3.20795C3.22981 3.03225 3.22981 2.85187 3.26306 2.67618C3.3299 2.342 3.56527 2.00782 4.16388 2.00782C4.7625 2.00782 5.09377 2.37687 5.09377 2.90865V3.50726H7.59282V2.80985C7.59282 0.644966 5.62845 0.310791 4.23072 0.310791C2.46394 0.310791 0.999381 0.909402 0.73204 2.51054C0.644586 2.95125 0.656499 3.40591 0.76691 3.84143C1.16502 5.90461 4.73053 6.50613 5.23034 7.77018M37.6367 7.77018C37.7355 8.00265 37.7006 8.30487 37.6687 8.50537C37.6018 8.83664 37.3694 9.17082 36.7039 9.17082C36.0704 9.17082 35.7043 8.80468 35.7043 8.27V7.30524H33.0396V8.0724C33.0396 10.2692 34.7715 10.9347 36.6371 10.9347C38.4358 10.9347 39.9004 10.3361 40.1329 8.67101C40.2665 7.80506 40.1677 7.27328 40.1329 7.0379C39.7348 4.97473 35.9687 4.34125 35.7043 3.20795C35.6708 3.03228 35.6708 2.85185 35.7043 2.67618C35.7711 2.342 36.0036 2.00782 36.6051 2.00782C37.1689 2.00782 37.535 2.37687 37.535 2.90865V3.50726H39.9992V2.80985C39.9992 0.644966 38.0668 0.310791 36.6691 0.310791C34.9052 0.310791 33.4726 0.877438 33.2052 2.51054C33.1384 2.94352 33.1384 3.34162 33.2401 3.84143C33.6382 5.90461 37.134 6.47126 37.6367 7.77018ZM46.0289 9.10398C46.7263 9.10398 46.9297 8.63904 46.9937 8.3717C47.0285 8.26999 47.0285 8.10436 47.0285 8.00556V0.64206H49.5566V7.80215C49.5566 8.00266 49.5566 8.3688 49.5276 8.4705C49.359 10.3332 47.8945 10.9318 46.0609 10.9318C44.2302 10.9318 42.7656 10.3332 42.5971 8.46759C42.5971 8.36879 42.5651 8.00266 42.5651 7.80215V0.64206H45.0932V8.00265C45.0932 8.13632 45.0932 8.26709 45.1281 8.3688C45.1281 8.63323 45.3315 9.10108 46.0289 9.10108M66.8118 9.00228C67.544 9.00228 67.7765 8.53734 67.8433 8.26709C67.8753 8.16829 67.8753 8.00265 67.8753 7.90095V6.46835H66.8437V5.00379H70.3744V7.66848C70.3744 7.86898 70.3744 8.00266 70.3424 8.33683C70.1739 10.1675 68.6076 10.7981 66.8437 10.7981C65.0798 10.7981 63.5136 10.1675 63.3479 8.33393C63.3131 8.00266 63.3131 7.86898 63.3131 7.66848V3.47239C63.3131 3.30675 63.3479 2.97258 63.3479 2.80404C63.5804 0.941367 65.0798 0.342755 66.8437 0.342755C68.6076 0.342755 70.1419 0.941365 70.3395 2.80694C70.3744 3.10625 70.3744 3.47239 70.3744 3.47239V3.80657H67.8753V3.23992C67.8753 3.23992 67.8753 3.00745 67.8433 2.87378C67.8085 2.64131 67.6109 2.14149 66.8437 2.14149C66.1114 2.14149 65.9138 2.60644 65.8441 2.87378C65.8121 3.00454 65.8121 3.17308 65.8121 3.33872V7.90095C65.8121 8.03462 65.8121 8.16829 65.8441 8.26709C65.8441 8.53443 66.1114 9.00228 66.8118 9.00228Z"
                fill="#A9A9B9"
              />
            </svg>