   <svg
              className="w-20 h-4 md:w-44 md:h-11"
              viewBox="0 0 72 19"
              fill="none"
              xmlns="http://www.w3.org/2000/svg"
            >
              <path
                d="M23.2382 14.7624L24.1286 12.691C25.0901 13.4106 26.3653 13.784 27.6264 13.784C28.5605 13.784 29.1457 13.4246 29.1457 12.8774C29.1316 11.3553 23.5681 12.5475 23.5273 8.72339C23.5132 6.78354 25.2329 5.28609 27.67 5.28609C29.1182 5.28609 30.5657 5.64621 31.599 6.46773L30.7669 8.58061C29.8216 7.97573 28.6456 7.54457 27.5272 7.54457C26.7662 7.54457 26.2661 7.90468 26.2661 8.36327C26.2802 9.8579 31.8845 9.0392 31.9422 12.691C31.9422 14.6745 30.2668 16.0699 27.8571 16.0699C26.0931 16.0699 24.4719 15.6536 23.2382 14.7624ZM57.3509 11.9434C57.073 12.439 56.6384 12.8283 56.1153 13.0502C55.5922 13.2721 55.0102 13.314 54.4607 13.1694C53.9112 13.0248 53.4252 12.7018 53.0791 12.2511C52.733 11.8005 52.5464 11.2476 52.5484 10.6794C52.5475 10.3418 52.6132 10.0072 52.7418 9.69498C52.8703 9.38274 53.0592 9.09893 53.2976 8.85981C53.536 8.62068 53.8193 8.43093 54.1311 8.30144C54.443 8.17194 54.7773 8.10523 55.115 8.10514C56.0737 8.10514 56.9064 8.63828 57.3517 9.41338L59.8021 8.04747C58.8843 6.41006 57.1202 5.28609 55.115 5.28609C52.1447 5.28609 49.7378 7.70423 49.7378 10.6794C49.7378 13.6546 52.1447 16.0699 55.115 16.0699C56.072 16.072 57.012 15.8168 57.8366 15.331C58.6612 14.8452 59.3401 14.1467 59.8021 13.3086L57.3509 11.9434ZM33.1759 0.815562H36.2453V15.8695H33.1759V0.815562ZM61.0084 0.815562V15.8695H64.0743V11.3554L67.7177 15.8695H71.6467L67.0144 10.5064L71.3027 5.50343H67.5447L64.0743 9.65745V0.816265H61.0077L61.0084 0.815562ZM45.3637 11.9736C44.9191 12.7072 44.0012 13.2509 42.968 13.2509C42.6306 13.2507 42.2966 13.184 41.985 13.0547C41.6734 12.9253 41.3904 12.7358 41.1521 12.497C40.9138 12.2582 40.7249 11.9747 40.5963 11.6628C40.4676 11.351 40.4016 11.0168 40.4022 10.6794C40.4015 10.3419 40.4674 10.0075 40.596 9.69547C40.7246 9.38341 40.9135 9.09974 41.1517 8.86067C41.39 8.62161 41.6731 8.43184 41.9847 8.3022C42.2964 8.17257 42.6305 8.1056 42.968 8.10514C44.0012 8.10514 44.9191 8.67908 45.3637 9.42675V11.9736ZM45.3637 5.50273V6.72656C44.8615 5.87691 43.6137 5.28609 42.309 5.28609C39.6137 5.28609 37.4924 7.67399 37.4924 10.6632C37.4924 13.6553 39.6137 16.0699 42.309 16.0699C43.6137 16.0699 44.8615 15.4791 45.3637 14.633V15.8561H48.4331V5.50273H45.3637ZM4.27009 11.9567C4.27009 13.0068 3.42395 13.8558 2.37665 13.8558C2.12761 13.8556 1.88106 13.8063 1.65109 13.7107C1.42112 13.6151 1.21226 13.4752 1.03646 13.2988C0.860659 13.1224 0.721366 12.913 0.626555 12.6828C0.531743 12.4525 0.483274 12.2058 0.483922 11.9567C0.483459 11.7079 0.53208 11.4614 0.627 11.2314C0.72192 11.0014 0.861275 10.7924 1.03709 10.6163C1.2129 10.4403 1.42171 10.3006 1.65158 10.2053C1.88144 10.1101 2.12783 10.0611 2.37665 10.0612H4.27009V11.9567ZM5.21469 11.9567C5.21423 11.7078 5.26288 11.4613 5.35784 11.2313C5.4528 11.0012 5.59222 10.7922 5.76811 10.6161C5.94399 10.44 6.15289 10.3003 6.38283 10.2051C6.61278 10.1099 6.85925 10.061 7.10813 10.0612C7.35701 10.0611 7.60346 10.1101 7.83337 10.2054C8.06327 10.3007 8.27212 10.4404 8.44794 10.6166C8.62376 10.7927 8.7631 11.0018 8.85798 11.2319C8.95286 11.462 9.00141 11.7085 9.00086 11.9574V16.7023C9.00141 16.9512 8.95288 17.1979 8.85802 17.4281C8.76317 17.6583 8.62386 17.8675 8.44807 18.0438C8.27228 18.2202 8.06345 18.3601 7.83353 18.4556C7.60361 18.5512 7.35711 18.6004 7.10813 18.6006C6.85903 18.6005 6.6124 18.5513 6.38235 18.4558C6.1523 18.3602 5.94336 18.2202 5.76748 18.0438C5.5916 17.8674 5.45225 17.6581 5.35739 17.4278C5.26254 17.1974 5.21405 16.9507 5.21469 16.7016V11.9567ZM7.10813 4.33867C6.85903 4.33858 6.6124 4.28936 6.38235 4.19382C6.1523 4.09828 5.94336 3.9583 5.76748 3.7819C5.5916 3.6055 5.45225 3.39614 5.35739 3.16581C5.26254 2.93548 5.21405 2.68871 5.21469 2.43961C5.21423 2.19073 5.26288 1.94421 5.35784 1.71416C5.4528 1.48411 5.59222 1.27506 5.76811 1.09897C5.94399 0.922892 6.15289 0.783241 6.38283 0.688021C6.61278 0.592801 6.85925 0.543882 7.10813 0.544068C7.35695 0.543975 7.60334 0.592961 7.8332 0.688222C8.06307 0.783484 8.27188 0.92315 8.44769 1.09922C8.6235 1.2753 8.76286 1.48432 8.85778 1.71432C8.9527 1.94432 9.00132 2.19079 9.00086 2.43961V4.33867H7.10813ZM7.10813 5.30297C7.35695 5.30288 7.60334 5.35187 7.8332 5.44713C8.06307 5.54239 8.27188 5.68206 8.44769 5.85813C8.6235 6.0342 8.76286 6.24322 8.85778 6.47323C8.9527 6.70323 9.00132 6.9497 9.00086 7.19852C9.00086 8.24792 8.15472 9.09758 7.10813 9.09758H2.36329C2.11419 9.09749 1.86756 9.04826 1.63751 8.95272C1.40746 8.85719 1.19852 8.71721 1.02264 8.54081C0.846766 8.36441 0.70741 8.15505 0.612554 7.92472C0.517699 7.69439 0.469208 7.44761 0.469855 7.19852C0.469392 6.94964 0.518036 6.70311 0.613 6.47306C0.707964 6.24301 0.847382 6.03396 1.02327 5.85788C1.19915 5.6818 1.40805 5.54215 1.638 5.44693C1.86794 5.35171 2.11441 5.30279 2.36329 5.30297H7.10813ZM14.6938 7.19852C14.6934 6.9497 14.742 6.70323 14.8369 6.47323C14.9318 6.24322 15.0712 6.0342 15.247 5.85813C15.4228 5.68206 15.6316 5.54239 15.8615 5.44713C16.0913 5.35187 16.3377 5.30288 16.5866 5.30297C16.8354 5.30279 17.0819 5.35171 17.3118 5.44693C17.5418 5.54215 17.7507 5.6818 17.9266 5.85788C18.1025 6.03396 18.2419 6.24301 18.3368 6.47306C18.4318 6.70311 18.4804 6.94964 18.48 7.19852C18.48 8.24792 17.6338 9.09758 16.5866 9.09758H14.6938V7.19852ZM13.7485 7.19852C13.7485 8.24792 12.9024 9.09758 11.8558 9.09758C11.6067 9.09749 11.36 9.04826 11.13 8.95272C10.9 8.85719 10.691 8.71721 10.5151 8.54081C10.3393 8.36441 10.1999 8.15505 10.105 7.92472C10.0102 7.69439 9.9617 7.44761 9.96235 7.19852V2.43961C9.96188 2.19073 10.0105 1.94421 10.1055 1.71416C10.2005 1.48411 10.3399 1.27506 10.5158 1.09897C10.6916 0.922892 10.9005 0.783241 11.1305 0.688021C11.3604 0.592801 11.6069 0.543882 11.8558 0.544068C12.1046 0.543975 12.351 0.592961 12.5809 0.688222C12.8107 0.783484 13.0195 0.92315 13.1953 1.09922C13.3712 1.2753 13.5105 1.48432 13.6054 1.71432C13.7004 1.94432 13.749 2.19079 13.7485 2.43961V7.19852ZM11.8558 14.806C12.1047 14.8059 12.3511 14.8549 12.581 14.9502C12.8109 15.0455 13.0198 15.1853 13.1956 15.3614C13.3714 15.5376 13.5108 15.7467 13.6056 15.9768C13.7005 16.2068 13.7491 16.4534 13.7485 16.7023C13.7491 16.9512 13.7005 17.1979 13.6057 17.4281C13.5108 17.6583 13.3715 17.8675 13.1957 18.0438C13.0199 18.2202 12.8111 18.3601 12.5812 18.4556C12.3513 18.5512 12.1048 18.6004 11.8558 18.6006C11.6067 18.6005 11.36 18.5513 11.13 18.4558C10.9 18.3602 10.691 18.2202 10.5151 18.0438C10.3393 17.8674 10.1999 17.6581 10.105 17.4278C10.0102 17.1974 9.9617 16.9507 9.96235 16.7016V14.806H11.8558ZM11.8558 13.8558C11.6067 13.8557 11.36 13.8065 11.13 13.7109C10.9 13.6154 10.691 13.4754 10.5151 13.299C10.3393 13.1226 10.1999 12.9133 10.105 12.6829C10.0102 12.4526 9.9617 12.2058 9.96235 11.9567C9.96188 11.7078 10.0105 11.4613 10.1055 11.2313C10.2005 11.0012 10.3399 10.7922 10.5158 10.6161C10.6916 10.44 10.9005 10.3003 11.1305 10.2051C11.3604 10.1099 11.6069 10.061 11.8558 10.0612H16.6006C16.8495 10.0611 17.096 10.1101 17.3259 10.2054C17.5558 10.3007 17.7646 10.4404 17.9404 10.6166C18.1163 10.7927 18.2556 11.0018 18.3505 11.2319C18.4454 11.462 18.4939 11.7085 18.4933 11.9574C18.4939 12.2064 18.4454 12.453 18.3505 12.6833C18.2557 12.9135 18.1164 13.1227 17.9406 13.299C17.7648 13.4753 17.5559 13.6153 17.326 13.7108C17.0961 13.8063 16.8496 13.8556 16.6006 13.8558H11.8558Z"
                fill="#A9A9B9"
              />
            </svg>