 <svg
              className="w-16 h-16 md:w-40 md:h-40"
              viewBox="0 0 62 63"
              fill="none"
              xmlns="http://www.w3.org/2000/svg"
            >
              <g clip-path="url(#clip0_0_541)">
                <path
                  d="M22.1653 26.0901C24.5361 26.0901 26.4332 26.6821 27.8825 28.0001C28.8735 28.8985 29.427 30.1779 29.4115 31.519C29.4079 32.1807 29.2706 32.8349 29.0078 33.4423C28.7451 34.0496 28.3623 34.5976 27.8825 35.0533C26.5259 36.2992 24.4125 36.9633 22.1678 36.9633C19.9206 36.9633 17.8432 36.2992 16.4661 35.0533C15.9695 34.6095 15.574 34.0644 15.3063 33.4547C15.0385 32.8449 14.9047 32.1849 14.9138 31.519C14.9138 30.1856 15.475 28.9062 16.4661 28.0001C17.7531 26.8314 20.0287 26.0901 22.1653 26.0901ZM22.173 35.5373C23.3597 35.5373 24.4588 35.1228 25.2311 34.3583C26.0033 33.586 26.3457 32.6593 26.3457 31.519C26.3457 30.4275 25.9647 29.4056 25.2311 28.6797C24.4743 27.9332 23.3442 27.5085 22.173 27.5085C21.0017 27.5085 19.8743 27.9306 19.1097 28.6797C18.3761 29.4056 17.9925 30.4275 17.9925 31.519C17.9769 32.5755 18.3783 33.5957 19.1097 34.3583C19.8743 35.1151 20.9966 35.5373 22.173 35.5373ZM9.71147 30.4713C10.1233 30.5794 10.5223 30.7133 10.911 30.8909C11.2717 31.0551 11.6016 31.2797 11.8866 31.555C12.3937 32.0853 12.6821 32.7958 12.6743 33.5268C12.6798 33.9145 12.5945 34.298 12.425 34.6467C12.2556 34.9953 12.0069 35.2995 11.6987 35.5347C11.1536 35.9479 10.5339 36.252 9.87364 36.4305C8.87972 36.7424 7.84159 36.8902 6.8001 36.8681C5.89399 36.8681 5.39461 36.7626 4.70731 36.6184L4.5091 36.5772C3.75173 36.4097 3.01215 36.1701 2.30047 35.8616C2.26865 35.84 2.23077 35.8292 2.19235 35.8307C2.1359 35.832 2.08222 35.8554 2.04277 35.8958C2.00333 35.9362 1.98126 35.9905 1.98127 36.0469V36.5695H0.467669V32.7649H1.81653C1.82483 33.1506 1.94758 33.5251 2.16919 33.8409C2.71491 34.5102 3.30182 34.7676 3.86041 34.9735C4.80513 35.2824 5.79618 35.4472 6.78465 35.478C8.20816 35.478 9.03962 35.1331 9.21981 35.0585L9.24298 35.0482L9.25842 35.043C9.41802 34.9838 10.0616 34.7496 10.0616 34.0339C10.0616 33.3286 9.4592 33.1742 9.06536 33.0738L9.00873 33.0609C8.57112 32.9425 7.56205 32.8344 6.46031 32.7185L6.06904 32.6774C5.03588 32.5721 4.00781 32.4218 2.98777 32.2269C1.70584 31.9437 1.2013 31.4752 0.887256 31.1843L0.866663 31.1638C0.408856 30.6756 0.154725 30.0311 0.156195 29.3618C0.156195 28.0851 1.03141 27.3128 2.10483 26.8392C3.25291 26.3243 4.61721 26.0952 5.81162 26.0952C7.92243 26.103 9.6394 26.7903 10.2572 27.1095C10.5069 27.2433 10.6304 27.0786 10.6304 26.955V26.5715H11.987V29.887H10.772C10.6629 29.395 10.3974 28.9515 10.0152 28.6231C9.7823 28.4357 9.52513 28.2807 9.2507 28.1623C8.23225 27.7323 7.13585 27.5175 6.03043 27.5316C4.89007 27.5316 3.79863 27.7504 3.25033 28.0851C2.91055 28.2961 2.7355 28.5613 2.7355 28.8728C2.7355 29.3181 3.11133 29.4957 3.30182 29.5498C3.80635 29.7042 4.92869 29.8149 5.80133 29.9024L6.32645 29.9565C7.1682 30.0414 8.9315 30.2757 9.71147 30.4713ZM56.4762 27.9049V26.6718H61.936V27.8817H60.7107C60.2679 27.8817 60.0878 27.9666 59.7531 28.3425L56.0798 32.5384C56.041 32.59 56.0235 32.6544 56.0309 32.7185V34.6286C56.037 34.7174 56.0473 34.8059 56.0618 34.8937C56.0837 34.9497 56.1184 34.9998 56.163 35.04C56.2077 35.0802 56.2612 35.1095 56.3192 35.1254C56.43 35.1417 56.5418 35.1503 56.6538 35.1511H57.9049V36.361H51.279V35.1511H52.4631C52.5751 35.1504 52.6869 35.1418 52.7977 35.1254C52.8566 35.1086 52.911 35.0792 52.9572 35.0392C53.0035 34.9991 53.0404 34.9495 53.0655 34.8937C53.0808 34.8088 53.0886 34.7226 53.0886 34.6363V32.7263C53.0886 32.6619 53.0886 32.6619 53.0037 32.5615C51.7945 31.1839 50.583 29.8085 49.369 28.4351C49.1733 28.2318 48.8387 27.9049 48.3238 27.9049H47.1449V26.695H53.8068V27.9049H53.0037C52.8235 27.9049 52.6999 28.0851 52.8544 28.2807L55.1171 30.9861C55.1402 31.017 55.1557 31.017 55.1866 30.9939C55.2174 30.9707 57.4879 28.3039 57.5033 28.2807C57.522 28.2561 57.5357 28.228 57.5435 28.198C57.5513 28.1681 57.5531 28.1369 57.5488 28.1063C57.5445 28.0757 57.5342 28.0462 57.5184 28.0196C57.5026 27.9929 57.4818 27.9697 57.457 27.9512C57.4111 27.9211 57.3574 27.905 57.3025 27.9049H56.4762ZM40.3002 27.8971H41.5487C42.1176 27.8971 42.2179 28.116 42.2257 28.6462L42.2977 32.6774L35.6513 26.695H30.9019V27.9049H31.9625C32.727 27.9049 32.7811 28.327 32.7811 28.7029V34.3995C32.7811 34.729 32.7837 35.1589 32.3126 35.1589H31.0101V36.361H36.5805V35.1511H35.2214C34.6757 35.1511 34.6551 34.9014 34.6448 34.3712V29.5266L42.2977 36.3507H44.2464L44.1434 28.6385C44.1537 28.0773 44.1923 27.8894 44.7689 27.8894H45.9865V26.6796H40.3002V27.8971Z"
                  fill="#A9A9B9"
                />
              </g>
              <defs>
                <clipPath id="clip0_0_541">
                  <rect
                    width="61.7798"
                    height="61.7798"
                    fill="white"
                    transform="translate(0.156372 0.634766)"
                  />
                </clipPath>
              </defs>
            </svg>